<svg xmlns="http://www.w3.org/2000/svg" viewBox="0 0 840 672" font-family="Helvetica,Arial,sans-serif">
<rect width="100%" height="100%" fill="#ffffff"/>
<text x="40" y="34" font-size="20" font-weight="700" fill="#1b2a41">Karve residence, Deccan</text>
<text x="40" y="56" font-size="13" fill="#5c6b7a">2BHK full home · about 880 sq ft · Version 4</text>
<g><rect x="435.2" y="86.0" width="364.8" height="273.6" fill="#eaf2fb" stroke="#3b3b3b" stroke-width="3"/><rect x="471.7" y="255.6" width="200.6" height="60.2" rx="1.5" fill="#b7c4d6" stroke="#7a6a52" stroke-width=".8"/><rect x="471.7" y="315.8" width="54.7" height="27.4" rx="1.5" fill="#b7c4d6" stroke="#7a6a52" stroke-width=".8"/><rect x="537.3" y="195.4" width="109.4" height="38.3" rx="1.5" fill="#d8c6a5" stroke="#7a6a52" stroke-width=".8"/><rect x="697.9" y="99.7" width="80.3" height="27.4" rx="1.5" fill="#6b5a47" stroke="#7a6a52" stroke-width=".8"/><text x="443.2" y="104.0" font-size="13" font-weight="600" fill="#2a2a2a" stroke="#fff" stroke-width="3" paint-order="stroke">Living</text></g><g><rect x="572.0" y="359.6" width="228.0" height="258.4" fill="#f1f6ea" stroke="#3b3b3b" stroke-width="3"/><rect x="629.0" y="437.1" width="114.0" height="103.4" rx="1.5" fill="#c9a97a" stroke="#7a6a52" stroke-width=".8"/><circle cx="617.6" cy="488.8" r="5" fill="#d9ccb4" stroke="#7a6a52" stroke-width=".8"/><circle cx="754.4" cy="488.8" r="5" fill="#d9ccb4" stroke="#7a6a52" stroke-width=".8"/><circle cx="663.2" cy="416.4" r="5" fill="#d9ccb4" stroke="#7a6a52" stroke-width=".8"/><circle cx="708.8" cy="416.4" r="5" fill="#d9ccb4" stroke="#7a6a52" stroke-width=".8"/><circle cx="663.2" cy="561.2" r="5" fill="#d9ccb4" stroke="#7a6a52" stroke-width=".8"/><circle cx="708.8" cy="561.2" r="5" fill="#d9ccb4" stroke="#7a6a52" stroke-width=".8"/><text x="580.0" y="377.6" font-size="13" font-weight="600" fill="#2a2a2a" stroke="#fff" stroke-width="3" paint-order="stroke">Dining</text></g><g><rect x="435.2" y="466.0" width="136.8" height="152.0" fill="#fdf1de" stroke="#3b3b3b" stroke-width="3"/><rect x="440.7" y="496.4" width="125.9" height="30.4" rx="1.5" fill="#b9b5ad" stroke="#7a6a52" stroke-width=".8"/><rect x="440.7" y="526.8" width="27.4" height="83.6" rx="1.5" fill="#b9b5ad" stroke="#7a6a52" stroke-width=".8"/><rect x="489.9" y="496.4" width="19.2" height="30.4" rx="1.5" fill="#e6d9c3" stroke="#7a6a52" stroke-width=".8"/><text x="443.2" y="484.0" font-size="13" font-weight="600" fill="#2a2a2a" stroke="#fff" stroke-width="3" paint-order="stroke">Kitchen</text></g><g><rect x="435.2" y="359.6" width="136.8" height="106.4" fill="#f4f4f2" stroke="#3b3b3b" stroke-width="3"/><text x="443.2" y="377.6" font-size="13" font-weight="600" fill="#2a2a2a" stroke="#fff" stroke-width="3" paint-order="stroke">Passage</text></g><g><rect x="207.2" y="86.0" width="228.0" height="228.0" fill="#f1ecf8" stroke="#3b3b3b" stroke-width="3"/><rect x="264.2" y="154.4" width="114.0" height="114.0" rx="1.5" fill="#d7c9e6" stroke="#7a6a52" stroke-width=".8"/><rect x="218.6" y="122.5" width="205.2" height="22.8" rx="1.5" fill="#9a8566" stroke="#7a6a52" stroke-width=".8"/><rect x="241.4" y="154.4" width="22.8" height="27.4" rx="1.5" fill="#bdb0cc" stroke="#7a6a52" stroke-width=".8"/><rect x="378.2" y="154.4" width="22.8" height="27.4" rx="1.5" fill="#bdb0cc" stroke="#7a6a52" stroke-width=".8"/><text x="215.2" y="104.0" font-size="13" font-weight="600" fill="#2a2a2a" stroke="#fff" stroke-width="3" paint-order="stroke">Master bedroom</text></g><g><rect x="40.0" y="86.0" width="167.2" height="136.8" fill="#e3f4f4" stroke="#3b3b3b" stroke-width="3"/><rect x="56.7" y="96.9" width="58.5" height="41.0" rx="1.5" fill="#ffffff" stroke="#7a6a52" stroke-width=".8"/><circle cx="160.4" cy="120.2" r="6" fill="#ffffff" stroke="#7a6a52" stroke-width=".8"/><rect x="56.7" y="170.8" width="133.8" height="41.0" rx="1.5" fill="#cfe4e6" stroke="#7a6a52" stroke-width=".8"/><text x="48.0" y="104.0" font-size="13" font-weight="600" fill="#2a2a2a" stroke="#fff" stroke-width="3" paint-order="stroke">Bath</text></g><g><rect x="40.0" y="222.8" width="167.2" height="91.2" fill="#ecf6ec" stroke="#3b3b3b" stroke-width="3"/><circle cx="90.2" cy="268.4" r="5" fill="#a9cfa4" stroke="#7a6a52" stroke-width=".8"/><circle cx="148.7" cy="268.4" r="5" fill="#a9cfa4" stroke="#7a6a52" stroke-width=".8"/><text x="48.0" y="240.8" font-size="13" font-weight="600" fill="#2a2a2a" stroke="#fff" stroke-width="3" paint-order="stroke">Balcony</text></g><g><rect x="222.4" y="314.0" width="212.8" height="304.0" fill="#f1ecf8" stroke="#3b3b3b" stroke-width="3"/><rect x="275.6" y="405.2" width="106.4" height="152.0" rx="1.5" fill="#d7c9e6" stroke="#7a6a52" stroke-width=".8"/><rect x="233.0" y="362.6" width="191.5" height="30.4" rx="1.5" fill="#9a8566" stroke="#7a6a52" stroke-width=".8"/><rect x="254.3" y="405.2" width="21.3" height="36.5" rx="1.5" fill="#bdb0cc" stroke="#7a6a52" stroke-width=".8"/><rect x="382.0" y="405.2" width="21.3" height="36.5" rx="1.5" fill="#bdb0cc" stroke="#7a6a52" stroke-width=".8"/><text x="230.4" y="332.0" font-size="13" font-weight="600" fill="#2a2a2a" stroke="#fff" stroke-width="3" paint-order="stroke">Bedroom 2</text></g><g><rect x="40.0" y="314.0" width="182.4" height="152.0" fill="#e3f4f4" stroke="#3b3b3b" stroke-width="3"/><rect x="58.2" y="326.2" width="63.8" height="45.6" rx="1.5" fill="#ffffff" stroke="#7a6a52" stroke-width=".8"/><circle cx="171.3" cy="352.0" r="6" fill="#ffffff" stroke="#7a6a52" stroke-width=".8"/><rect x="58.2" y="408.2" width="145.9" height="45.6" rx="1.5" fill="#cfe4e6" stroke="#7a6a52" stroke-width=".8"/><text x="48.0" y="332.0" font-size="13" font-weight="600" fill="#2a2a2a" stroke="#fff" stroke-width="3" paint-order="stroke">Bath 2</text></g><g><rect x="40.0" y="466.0" width="182.4" height="152.0" fill="#f4f4f2" stroke="#3b3b3b" stroke-width="3"/><text x="48.0" y="484.0" font-size="13" font-weight="600" fill="#2a2a2a" stroke="#fff" stroke-width="3" paint-order="stroke">Utility</text></g>
<g transform="translate(40,640)"><line x1="0" y1="0" x2="100" y2="0" stroke="#333" stroke-width="2"/><line x1="0" y1="-5" x2="0" y2="5" stroke="#333"/><line x1="100" y1="-5" x2="100" y2="5" stroke="#333"/><text x="110" y="4" font-size="11" fill="#333">scale bar (not to scale)</text></g>
<g transform="translate(780,642)"><path d="M0 0 L8 -22 L16 0 L8 -6 Z" fill="#333"/><text x="5" y="14" font-size="11" fill="#333">N</text></g>
<text x="800" y="34" font-size="11" fill="#8a97a6" text-anchor="end">Aangan Studio · concept layout, not for construction</text>
</svg>